<svg width="24" height="11" viewBox="0 0 24 11" fill="none" xmlns="http://www.w3.org/2000/svg">
<path d="M0.274979 6.12793C0.275259 6.1282 0.275494 6.12851 0.275822 6.12877L5.17444 10.7417C5.54143 11.0872 6.13501 11.086 6.5003 10.7387C6.86555 10.3914 6.86415 9.82974 6.49716 9.48413L3.20823 6.3871L23.0625 6.3871C23.5803 6.3871 24 5.98994 24 5.5C24 5.01006 23.5803 4.6129 23.0625 4.6129L3.20827 4.6129L6.49712 1.51587C6.8641 1.17026 6.86551 0.608591 6.50026 0.261337C6.13496 -0.0860068 5.54134 -0.0872037 5.1744 0.25832L0.275775 4.87123C0.275494 4.87149 0.27526 4.8718 0.274931 4.87207C-0.0922408 5.21883 -0.0910678 5.78232 0.274979 6.12793Z" fill="#89A8FF"/>
</svg>
