<svg width="24" height="11" viewBox="0 0 24 11" fill="none" xmlns="http://www.w3.org/2000/svg">
<path d="M23.725 4.87207C23.7247 4.87181 23.7245 4.8715 23.7242 4.87123L18.8256 0.258323C18.4586 -0.0872456 17.865 -0.0859598 17.4997 0.261339C17.1344 0.608593 17.1359 1.17026 17.5028 1.51587L20.7918 4.61291L0.937499 4.6129C0.419718 4.6129 -8.75986e-07 5.01006 -9.6165e-07 5.5C-1.04731e-06 5.98994 0.419717 6.3871 0.937499 6.3871L20.7917 6.3871L17.5029 9.48413C17.1359 9.82975 17.1345 10.3914 17.4997 10.7387C17.865 11.086 18.4587 11.0872 18.8256 10.7417L23.7242 6.12878C23.7245 6.12851 23.7247 6.1282 23.7251 6.12794C24.0922 5.78117 24.0911 5.21768 23.725 4.87207Z" fill="#89A8FF"/>
</svg>
