<svg id="Layer_1" data-name="Layer 1" xmlns="http://www.w3.org/2000/svg" xmlns:xlink="http://www.w3.org/1999/xlink" viewBox="0 0 526.77 533.54"><defs><style>.cls-1{fill:url(#linear-gradient);}.cls-2{fill:#3f3f3f;}.cls-3{fill:#0d214f;}.cls-4{isolation:isolate;}.cls-5{fill:#555;}</style><linearGradient id="linear-gradient" x1="516.96" y1="2411.7" x2="-45.59" y2="2539.47" gradientTransform="translate(0 -2322.21)" gradientUnits="userSpaceOnUse"><stop offset="0" stop-color="#70e3e1"/><stop offset="1" stop-color="#0049b8"/></linearGradient></defs><path class="cls-1" d="M516.72,98.41h-37.2a4.38,4.38,0,0,0-3.6,1.6,5.8,5.8,0,0,0-1.6,3.6v93.6l-62-47.6c-1-1-1-2.1-1-3.6a4.38,4.38,0,0,1,1.6-3.6l56.9-56.9a17.36,17.36,0,0,0,1.6-2.6,6.75,6.75,0,0,0-.5-3.1,8,8,0,0,0-2.1-2.6,7.51,7.51,0,0,0-3.1-1h-42.4a4.38,4.38,0,0,0-3.6,1.6l-59.5,55.8a17.36,17.36,0,0,1-2.6,1.6,6.75,6.75,0,0,1-3.1-.5,8,8,0,0,1-2.6-2.1,7.51,7.51,0,0,1-1-3.1V19.31a7.51,7.51,0,0,0-1-3.1,5.43,5.43,0,0,0-2.6-2.1c-.5,0-1-.5-1.6-.5-14-3.6-66.2-5.7-85.8-6.2h-34.1a83,83,0,0,0-41.4,9.3A60.62,60.62,0,0,0,158,42.61a81.46,81.46,0,0,0-9.3,37.7,66.19,66.19,0,0,0,9.8,39.3,53.75,53.75,0,0,0,22.8,19.1,258.73,258.73,0,0,0,33.6,9.8,91.77,91.77,0,0,1,25.9,7.2,12.65,12.65,0,0,1,6.2,5.7,14.91,14.91,0,0,1,2.1,8.3c0,14-10.3,20.7-30.5,20.7a91.88,91.88,0,0,1-31-5.7c-9.8-4.1-18.6-9.8-27.4-16v-1a71.08,71.08,0,0,0-37.7-63.1,93.23,93.23,0,0,0-40.7-9.3,90.28,90.28,0,0,0-40.3,9.3,70.24,70.24,0,0,0-27.9,25.9,75.5,75.5,0,0,0,0,74.4,71.2,71.2,0,0,0,27.9,25.9,92,92,0,0,0,80.6,0,68.91,68.91,0,0,0,20.7-16,190.59,190.59,0,0,0,33.1,18.6,116.79,116.79,0,0,0,40.3,6.7,90,90,0,0,0,41.9-8.8A63.82,63.82,0,0,0,285,206a78,78,0,0,0,9.3-37.2c1-13.4-2.6-26.9-9.3-38.8a52.29,52.29,0,0,0-23.3-19.1,251.66,251.66,0,0,0-33.1-9.8,116,116,0,0,1-26.4-8.3c-2.6-1.6-5.2-3.6-6.2-6.2a16.63,16.63,0,0,1-2.1-8.8,14.91,14.91,0,0,1,2.1-8.3,22.63,22.63,0,0,1,5.7-6.7,33.52,33.52,0,0,1,23.3-5.7c12.4,0,49.6,0,76.5,2.1V235a4.38,4.38,0,0,0,1.6,3.6,6,6,0,0,0,3.6,1.6h37.2a4.38,4.38,0,0,0,3.6-1.6,5.8,5.8,0,0,0,1.6-3.6v-33.7c0-1,0-2.1.5-2.6a6.09,6.09,0,0,1,1.6-2.1l19.1-15c3.1-3.1,4.1-2.6,7.2.5l87.9,56.4a8,8,0,0,0,2.1,1.6c.5.5,1.6.5,2.6.5h46a4.38,4.38,0,0,0,3.6-1.6,5.8,5.8,0,0,0,1.6-3.6V103.61a4.38,4.38,0,0,0-1.6-3.6A3.42,3.42,0,0,0,516.72,98.41Zm-408,98.2a34,34,0,0,1-25.9,10.9c-4.7,0-9.8-.5-14-2.6a33.09,33.09,0,0,1-11.9-8.3,34.4,34.4,0,0,1-7.8-12.9,36,36,0,0,1-2.1-15,39,39,0,0,1,10.3-28.4,38.08,38.08,0,0,1,11.9-8.3,33.11,33.11,0,0,1,14-2.6c4.7,0,9.8.5,14,2.6a38.08,38.08,0,0,1,11.9,8.3,38.7,38.7,0,0,1,10.3,28.4,36,36,0,0,1-2.1,15A60.43,60.43,0,0,1,108.72,196.61Z"/><path class="cls-2" d="M21.12,339.41c-3.6-1-6.7-3.1-9.8-5.2l3.6-6.7a29.89,29.89,0,0,0,8.8,4.7c9,3.6,19.1,1.6,22.8-.5a7.48,7.48,0,0,0,4.1-7.2,8.73,8.73,0,0,0-.5-3.1,9.11,9.11,0,0,0-6.7-5.7,50.49,50.49,0,0,0-8.3-2.1,46,46,0,0,1-10.9-3.1c-2.6-1-9.8-3.9-10.3-14.5-.1-2.6.5-9.1,6.2-12.9,11.3-7.4,23.8-4.1,27.4-3.1a28.32,28.32,0,0,1,8.8,4.1l-3.1,6.7a28.71,28.71,0,0,0-16.5-5.2c-6.3-.4-13.9,2.6-14.5,9.8a7.46,7.46,0,0,0,2.1,5.7,10.4,10.4,0,0,0,5.2,3.1,45.36,45.36,0,0,0,8.8,2.1,90.44,90.44,0,0,1,10.9,2.6,20,20,0,0,1,7.2,4.7,14.3,14.3,0,0,1,3.1,9.3,18.54,18.54,0,0,1-1.6,7.2C52.52,343.11,32.52,343,21.12,339.41Z"/><path class="cls-2" d="M476.12,339.91c-3.6-1-6.7-3.1-9.8-5.2l3.6-6.7a29.89,29.89,0,0,0,8.8,4.7c6.8,2.8,15.8,2.1,19.5,0,1-.5,7-2.7,7.4-7.8.1-1,.4-5.8-7.2-8.8a50.49,50.49,0,0,0-8.3-2.1,46,46,0,0,1-10.9-3.1c-2.6-1-10.3-4.2-10.3-14.5a16.75,16.75,0,0,1,1.6-7.2,12.53,12.53,0,0,1,4.7-5.7c9.4-7.1,23.8-4.1,27.4-3.1a28.32,28.32,0,0,1,8.8,4.1l-3.1,6.7c-5.2-3.6-25.1-8.5-30,.5-1.9,3.6-2.4,9.6,6.2,12.9a45.36,45.36,0,0,0,8.8,2.1,90.44,90.44,0,0,1,10.9,2.6,20,20,0,0,1,7.2,4.7,14.3,14.3,0,0,1,3.1,9.3c0,2.6,0,7.6-6.2,12.4C501.92,341,487,343.61,476.12,339.91Z"/><path class="cls-2" d="M82.12,337.91A29.25,29.25,0,0,1,71.82,327a37.36,37.36,0,0,1,0-32,26.43,26.43,0,0,1,10.3-10.9,29.18,29.18,0,0,1,14.5-4.1,28.76,28.76,0,0,1,14.5,4.1,29.25,29.25,0,0,1,10.3,10.9,34.37,34.37,0,0,1,3.6,16c0,5.7-1.6,10.9-3.6,16a26.43,26.43,0,0,1-10.3,10.9,29.18,29.18,0,0,1-14.5,4.1,27.54,27.54,0,0,1-14.5-4.1Zm24.8-6.2a18.77,18.77,0,0,0,7.2-8.3,30.87,30.87,0,0,0,0-24.8,19.41,19.41,0,0,0-7.2-8.3,18.86,18.86,0,0,0-10.9-3.1,21.82,21.82,0,0,0-10.9,3.1,18.77,18.77,0,0,0-7.2,8.3,30.87,30.87,0,0,0,0,24.8,19.41,19.41,0,0,0,7.2,8.3,18.86,18.86,0,0,0,10.9,3.1A19.64,19.64,0,0,0,106.92,331.71Z"/><path class="cls-2" d="M149.32,337.41c-1.5-1.6-4.4-5.3-4.1-12.4v-65.7h6.7v65.1c0,3.1.3,8.1,5.2,9.8a9.8,9.8,0,0,0,3.6.5,15.83,15.83,0,0,0,4.7-1l.5,6.7a13.5,13.5,0,0,1-6.2,1A13.18,13.18,0,0,1,149.32,337.41Z"/><path class="cls-2" d="M233.62,280v61h-8.3v-10.9a21.45,21.45,0,0,1-9.3,8.8c-9.1,4.3-19.3,3.3-22.6,2.3-3.6-1-7.5-2.5-10.1-5.1a25.22,25.22,0,0,1-5.5-9.6,27.78,27.78,0,0,1-1-10.3v-35.7h8.3v34.6c-1.3,17.9,12.9,20.5,18.6,19.6,3.1-.4,11-2.4,14.9-6.6,4.1-4.7,5.6-8.4,6.3-16.1v-32.1h8.7Z"/><path class="cls-2" d="M285.32,337.91c-1.8,2.6-9.1,5.6-19.6,3.6-2.1-.4-11.4-3.1-11.4-16v-55.8h8.3v12.9h18.6v6.7h-18.6v35.2c0,3.1.1,6.1,2.6,8.3a12.33,12.33,0,0,0,7.8,2.6,14.3,14.3,0,0,0,9.3-3.1Z"/><path class="cls-2" d="M297.22,283.11v58.4h6.7v-58.4Z"/><path class="cls-2" d="M336.52,337.91c-4.7-2.6-7.5-4.3-11.4-10.9a34.9,34.9,0,0,1-4.1-16,35.86,35.86,0,0,1,4.1-16,28.49,28.49,0,0,1,11.4-10.9,33.38,33.38,0,0,1,16-4.1,35.86,35.86,0,0,1,16,4.1,27.23,27.23,0,0,1,10.9,10.9,34.9,34.9,0,0,1,4.1,16,35.86,35.86,0,0,1-4.1,16,27.23,27.23,0,0,1-10.9,10.9,33.38,33.38,0,0,1-16,4.1A34.9,34.9,0,0,1,336.52,337.91Zm27.4-6.2a22,22,0,0,0,8.3-8.3,26.35,26.35,0,0,0,0-24.8,22,22,0,0,0-8.3-8.3,24.39,24.39,0,0,0-23.8,0,22,22,0,0,0-8.3,8.3,26.35,26.35,0,0,0,0,24.8,22,22,0,0,0,8.3,8.3,23.76,23.76,0,0,0,11.9,3.1A24.84,24.84,0,0,0,363.92,331.71Z"/><path class="cls-2" d="M449.72,296a48,48,0,0,1,1,10.3V342h-7.8v-34.6c-.2-5.3-.3-14.3-9.8-18.6a17.63,17.63,0,0,0-6.7-1,19.81,19.81,0,0,0-7.8,1.6c-2.6,1.1-9.2,6.1-10.9,12.4-1,2.6-1,5.7-1,8.8v32.1h-7.8v-62h7.2v11.4a24.73,24.73,0,0,1,8.8-8.8,27.09,27.09,0,0,1,12.4-3.1,27.58,27.58,0,0,1,9.3,1.6C441.12,283.31,448,288.61,449.72,296Z"/><rect class="cls-3" x="3.72" y="373.21" width="513.6" height="2"/><g class="cls-4"><path class="cls-3" d="M55.12,469.61H44.32a5,5,0,0,1-4.5-2.4l-13.5-20.6a4.25,4.25,0,0,0-1.7-1.6,6.16,6.16,0,0,0-2.7-.5h-5.1v25.2h-12v-64.4h19.6a41.51,41.51,0,0,1,11.3,1.4,22.18,22.18,0,0,1,7.7,3.8,14.13,14.13,0,0,1,4.4,5.9,18.56,18.56,0,0,1,1.4,7.5,17.36,17.36,0,0,1-1,6.1,20.68,20.68,0,0,1-2.8,5.3,16.11,16.11,0,0,1-4.5,4.1,23.59,23.59,0,0,1-6,2.8,8.34,8.34,0,0,1,2.1,1.6,10.1,10.1,0,0,1,1.8,2.2Zm-30.9-33.8a20.53,20.53,0,0,0,5.9-.8,10.74,10.74,0,0,0,4.1-2.3,9.16,9.16,0,0,0,2.4-3.5,13.3,13.3,0,0,0,.8-4.5,9.11,9.11,0,0,0-3.2-7.5c-2.2-1.8-5.4-2.6-9.9-2.6h-7.5V436h7.4Z"/><path class="cls-3" d="M74.12,414.71v17.9h22.5v9.2H74.12V460h28.6v9.6H62.12v-64.4h40.6v9.5Z"/><path class="cls-3" d="M165,437.31v26.1a35.31,35.31,0,0,1-10.4,5.3,41.73,41.73,0,0,1-11.9,1.7,38.34,38.34,0,0,1-14.3-2.5,30.4,30.4,0,0,1-17.9-17.2,35.26,35.26,0,0,1-2.5-13.2,35.76,35.76,0,0,1,2.4-13.3,29.58,29.58,0,0,1,17.2-17.2,38.24,38.24,0,0,1,13.9-2.4,41.48,41.48,0,0,1,7.3.6,36.07,36.07,0,0,1,6.3,1.7,29,29,0,0,1,5.3,2.6,30.22,30.22,0,0,1,4.4,3.4l-3.4,5.4a3.05,3.05,0,0,1-2.1,1.6,3.72,3.72,0,0,1-2.8-.6c-1-.6-2-1.1-2.9-1.7a16.58,16.58,0,0,0-3.3-1.5,22.38,22.38,0,0,0-4.1-1,26.81,26.81,0,0,0-5.2-.4,21.28,21.28,0,0,0-8.6,1.6,18.26,18.26,0,0,0-6.6,4.6,21.36,21.36,0,0,0-4.2,7.2,30.82,30.82,0,0,0,.1,19.3,21.32,21.32,0,0,0,4.5,7.4,19.44,19.44,0,0,0,6.9,4.6,23.64,23.64,0,0,0,9,1.6,24.89,24.89,0,0,0,6.4-.8,36.18,36.18,0,0,0,5.5-2v-11.9h-8.1a2.44,2.44,0,0,1-1.8-.6,2.27,2.27,0,0,1-.6-1.6v-6.8Z"/><path class="cls-3" d="M188.72,469.61h-12v-64.4h12Z"/><path class="cls-3" d="M237.42,416.91a5.68,5.68,0,0,1-1.1,1.4,2.41,2.41,0,0,1-1.5.4,3.46,3.46,0,0,1-2-.7,20,20,0,0,0-2.6-1.5,16,16,0,0,0-3.5-1.5,13.88,13.88,0,0,0-4.8-.7,14.63,14.63,0,0,0-4.4.6,9.22,9.22,0,0,0-3.1,1.7,6.06,6.06,0,0,0-1.9,2.6,8.81,8.81,0,0,0-.6,3.3,5.49,5.49,0,0,0,1.3,3.8,10.22,10.22,0,0,0,3.4,2.6,26.67,26.67,0,0,0,4.8,1.9c1.8.6,3.6,1.2,5.5,1.8a52.53,52.53,0,0,1,5.5,2.2,17.51,17.51,0,0,1,4.8,3.2,16.19,16.19,0,0,1,3.4,4.7,17.17,17.17,0,0,1,1.3,6.8,22.51,22.51,0,0,1-1.5,8.2,17.42,17.42,0,0,1-4.4,6.6,21.08,21.08,0,0,1-7,4.5,25.58,25.58,0,0,1-9.5,1.6,31.53,31.53,0,0,1-6.1-.6,34.28,34.28,0,0,1-5.7-1.7,24.91,24.91,0,0,1-5.1-2.7,24.36,24.36,0,0,1-4.3-3.5l3.5-5.7a2.94,2.94,0,0,1,1.2-1,2.82,2.82,0,0,1,1.5-.4,4.49,4.49,0,0,1,2.4.9c.9.6,1.9,1.3,3.1,2a27.48,27.48,0,0,0,4.2,2,16.24,16.24,0,0,0,5.7.9c3.4,0,6.1-.8,7.9-2.4s2.8-3.9,2.8-7a5.94,5.94,0,0,0-1.3-4.1,9.27,9.27,0,0,0-3.4-2.7,26.74,26.74,0,0,0-4.8-1.8c-1.8-.5-3.6-1.1-5.4-1.6a35.49,35.49,0,0,1-5.4-2.1,15.82,15.82,0,0,1-4.8-3.3,15.23,15.23,0,0,1-3.4-5,20,20,0,0,1-1.3-7.4,18.89,18.89,0,0,1,1.4-6.9,17,17,0,0,1,4.1-5.9,20,20,0,0,1,6.6-4.1,24.92,24.92,0,0,1,9-1.6,29.68,29.68,0,0,1,10.5,1.8,23.49,23.49,0,0,1,8.2,5Z"/><path class="cls-3" d="M296.92,415h-19.4v54.6h-12V415h-19.4v-9.8h50.8Z"/><path class="cls-3" d="M317.42,414.71v17.9h22.5v9.2h-22.5V460H346v9.6h-40.6v-64.4H346v9.5Z"/><path class="cls-3" d="M406.92,469.61h-10.8a5,5,0,0,1-4.5-2.4l-13.5-20.6a4.25,4.25,0,0,0-1.7-1.6,6.16,6.16,0,0,0-2.7-.5h-5.1v25.2h-12v-64.4h19.6a41.51,41.51,0,0,1,11.3,1.4,22.18,22.18,0,0,1,7.7,3.8,14.13,14.13,0,0,1,4.4,5.9,20.42,20.42,0,0,1,1.4,7.5,17.36,17.36,0,0,1-1,6.1,18,18,0,0,1-2.8,5.3,16.11,16.11,0,0,1-4.5,4.1,23.59,23.59,0,0,1-6,2.8,8.34,8.34,0,0,1,2.1,1.6,10.1,10.1,0,0,1,1.8,2.2Zm-30.8-33.8a20.53,20.53,0,0,0,5.9-.8,10.74,10.74,0,0,0,4.1-2.3,9.16,9.16,0,0,0,2.4-3.5,13.3,13.3,0,0,0,.8-4.5,9.11,9.11,0,0,0-3.2-7.5c-2.2-1.8-5.4-2.6-9.9-2.6h-7.7V436h7.6Z"/><path class="cls-3" d="M426,414.71v17.9h22.5v9.2H426V460h28.6v9.6H414v-64.4h40.6v9.5Z"/><path class="cls-3" d="M522.42,437.41a34.19,34.19,0,0,1-2.4,13,31,31,0,0,1-6.6,10.2,27.65,27.65,0,0,1-10.3,6.6,38,38,0,0,1-13.4,2.4h-24.6v-64.4h24.6a35.92,35.92,0,0,1,13.4,2.4,31.39,31.39,0,0,1,10.3,6.6,27.26,27.26,0,0,1,6.6,10.2A36.64,36.64,0,0,1,522.42,437.41Zm-12.3,0a31.1,31.1,0,0,0-1.4-9.5,18.44,18.44,0,0,0-4.1-7.1,19.5,19.5,0,0,0-6.4-4.5,22.59,22.59,0,0,0-8.5-1.6h-12.5v45.4h12.5a21.12,21.12,0,0,0,8.5-1.6,16.94,16.94,0,0,0,6.4-4.5,19.8,19.8,0,0,0,4.1-7.1A31.1,31.1,0,0,0,510.12,437.41Z"/></g><g class="cls-4"><path class="cls-5" d="M18.62,520.91a9.89,9.89,0,0,0,3.5-.6,6.77,6.77,0,0,0,2.6-1.8,8.54,8.54,0,0,0,1.6-2.8,10.64,10.64,0,0,0,.6-3.7v-21.4h6.7V512a16.26,16.26,0,0,1-1,5.9,14.9,14.9,0,0,1-2.9,4.7,14.26,14.26,0,0,1-4.7,3.1,17.13,17.13,0,0,1-6.2,1.1,17.13,17.13,0,0,1-6.2-1.1,13.76,13.76,0,0,1-4.7-3.1,12,12,0,0,1-2.9-4.7A16.26,16.26,0,0,1,4,512v-21.4h6.7V512a10.64,10.64,0,0,0,.6,3.7,8.54,8.54,0,0,0,1.6,2.8,6.77,6.77,0,0,0,2.6,1.8A7.45,7.45,0,0,0,18.62,520.91Z"/><path class="cls-5" d="M82.32,490.51v35.8h-5.9v-23.1c0-.9,0-1.9.1-3l-10.7,20.3a2.51,2.51,0,0,1-2.4,1.5h-.9a2.61,2.61,0,0,1-2.4-1.5l-10.9-20.4c0,.5.1,1.1.1,1.6s.1,1,.1,1.5v23.1h-5.9v-35.8h5.8c.2,0,.4.1.6.1s.3.2.5.3a1.54,1.54,0,0,1,.4.6l10.7,19.9c.3.5.5,1.1.8,1.6s.5,1.1.7,1.7c.2-.6.5-1.2.7-1.8a8,8,0,0,1,.8-1.6l10.6-19.8c.1-.2.3-.4.4-.6a.85.85,0,0,1,.5-.3c.2,0,.4-.1.6-.1h5.7Z"/><path class="cls-5" d="M105.22,490.51a21.5,21.5,0,0,1,6,.7,11.14,11.14,0,0,1,4.1,1.9,6.75,6.75,0,0,1,2.3,3,10.19,10.19,0,0,1,.7,4,6.72,6.72,0,0,1-.4,2.4,5.32,5.32,0,0,1-1.2,2.2,7,7,0,0,1-2,1.8,15.68,15.68,0,0,1-2.9,1.4c4.9,1.1,7.4,3.8,7.4,8a9.9,9.9,0,0,1-.9,4.2,9,9,0,0,1-2.5,3.3,12.35,12.35,0,0,1-4.1,2.2,18.71,18.71,0,0,1-5.5.8H92.92v-35.8h12.3Zm-5.7,5.1v10.3h5.3a9.3,9.3,0,0,0,5.2-1.2c1.2-.8,1.7-2.1,1.7-3.9s-.5-3.2-1.6-4a8.37,8.37,0,0,0-5-1.2Zm6.8,25.5a9.34,9.34,0,0,0,3.1-.4,5.61,5.61,0,0,0,2-1.2,4.52,4.52,0,0,0,1.1-1.7,7.61,7.61,0,0,0,.3-2.1,4.64,4.64,0,0,0-.4-2.1,3.57,3.57,0,0,0-1.2-1.6,5.36,5.36,0,0,0-2-1,12.62,12.62,0,0,0-3-.3h-6.7v10.5h6.8Z"/><path class="cls-5" d="M156,526.31h-6a2.66,2.66,0,0,1-2.5-1.3l-7.5-11.5a3.82,3.82,0,0,0-.9-.9,2.81,2.81,0,0,0-1.5-.3h-2.8v14h-6.7v-35.8H139a23.53,23.53,0,0,1,6.3.8,12.34,12.34,0,0,1,4.3,2.1,9,9,0,0,1,2.5,3.3,11.62,11.62,0,0,1,.8,4.2,12.7,12.7,0,0,1-.5,3.4,13.23,13.23,0,0,1-1.5,2.9,11,11,0,0,1-2.5,2.3,11.86,11.86,0,0,1-3.4,1.6,4.7,4.7,0,0,1,1.2.9,4,4,0,0,1,1,1.2Zm-17.1-18.8a10.9,10.9,0,0,0,3.3-.5,5.76,5.76,0,0,0,2.3-1.3,5.58,5.58,0,0,0,1.4-2,6.9,6.9,0,0,0,.4-2.5,5.17,5.17,0,0,0-1.8-4.2c-1.2-1-3-1.5-5.5-1.5h-4.3v11.9h4.2Z"/></g><g class="cls-4"><path class="cls-5" d="M192.72,526.31h-5.1a2.12,2.12,0,0,1-1.4-.4,2.26,2.26,0,0,1-.8-1.1l-2.7-7.3h-14.9l-2.7,7.3a1.89,1.89,0,0,1-.8,1,2.39,2.39,0,0,1-1.4.5h-5.1l14.1-35.8h6.8Zm-11.8-13.6-4.4-11.9c-.2-.5-.4-1.2-.7-1.9s-.5-1.5-.7-2.4a21.72,21.72,0,0,1-.7,2.4,19.68,19.68,0,0,1-.7,1.9l-4.3,11.9Z"/></g><g class="cls-4"><path class="cls-5" d="M223.32,517.81a1.28,1.28,0,0,1,1,.4l2.6,2.8a13.65,13.65,0,0,1-5.4,4.1,17.79,17.79,0,0,1-7.6,1.4,18.48,18.48,0,0,1-7.2-1.4,16.25,16.25,0,0,1-8.9-9.6,21.67,21.67,0,0,1-1.2-7.4,19.5,19.5,0,0,1,1.3-7.4,19,19,0,0,1,3.6-5.8,16.83,16.83,0,0,1,5.6-3.8,18.86,18.86,0,0,1,7.2-1.4,16.66,16.66,0,0,1,6.9,1.3,18.71,18.71,0,0,1,5.2,3.4l-2.2,3.1a1.21,1.21,0,0,1-.5.5,2,2,0,0,1-.9.2,3.09,3.09,0,0,1-.8-.2,4.05,4.05,0,0,1-.9-.5c-.3-.2-.7-.4-1.1-.7a6.11,6.11,0,0,0-1.4-.7,8.71,8.71,0,0,0-1.9-.5,16.86,16.86,0,0,0-2.5-.2,10.49,10.49,0,0,0-4.4.9,9.4,9.4,0,0,0-3.4,2.5,10.35,10.35,0,0,0-2.2,4,17.35,17.35,0,0,0-.8,5.3,15.29,15.29,0,0,0,.9,5.4,12,12,0,0,0,2.3,4A10.33,10.33,0,0,0,210,520a10,10,0,0,0,4.3.9,20.08,20.08,0,0,0,2.5-.1,11.7,11.7,0,0,0,2-.5,14.17,14.17,0,0,0,1.8-.8,6.53,6.53,0,0,0,1.6-1.3c.2-.1.3-.3.5-.4C222.92,517.91,223.12,517.81,223.32,517.81Z"/><path class="cls-5" d="M267.42,508.41a19.33,19.33,0,0,1-1.3,7.3,17.45,17.45,0,0,1-3.7,5.8,17.26,17.26,0,0,1-5.7,3.8,20.26,20.26,0,0,1-14.8,0,17.26,17.26,0,0,1-5.7-3.8,17.45,17.45,0,0,1-3.7-5.8,21.15,21.15,0,0,1,0-14.6,17.45,17.45,0,0,1,3.7-5.8,17.26,17.26,0,0,1,5.7-3.8,19.51,19.51,0,0,1,7.4-1.4,21,21,0,0,1,5.1.6,15.66,15.66,0,0,1,4.4,1.8,19.35,19.35,0,0,1,3.6,2.8,14.08,14.08,0,0,1,2.7,3.7,21.14,21.14,0,0,1,1.7,4.4A19.58,19.58,0,0,1,267.42,508.41Zm-6.8,0a17.35,17.35,0,0,0-.8-5.3,10.51,10.51,0,0,0-2.3-4,10.14,10.14,0,0,0-3.6-2.5,11.93,11.93,0,0,0-4.7-.9,11.59,11.59,0,0,0-4.7.9,10.14,10.14,0,0,0-3.6,2.5,12,12,0,0,0-2.3,4,18,18,0,0,0,0,10.6,10.51,10.51,0,0,0,2.3,4,10.14,10.14,0,0,0,3.6,2.5,12.72,12.72,0,0,0,9.4,0,10.14,10.14,0,0,0,3.6-2.5,12,12,0,0,0,2.3-4A17.85,17.85,0,0,0,260.62,508.41Z"/></g><g class="cls-4"><path class="cls-5" d="M300.42,490.81a21,21,0,0,1,5.9.8,11.43,11.43,0,0,1,4.1,2.2,8.46,8.46,0,0,1,2.4,3.5,13.3,13.3,0,0,1,.8,4.5,10.63,10.63,0,0,1-.9,4.5,9.76,9.76,0,0,1-2.5,3.5,10.94,10.94,0,0,1-4.1,2.3,16.35,16.35,0,0,1-5.7.8h-5.7v13.3h-4.8v-35.5h10.5Zm0,18.4a12.5,12.5,0,0,0,3.6-.5,11.74,11.74,0,0,0,2.7-1.5,6,6,0,0,0,1.6-2.3,7.29,7.29,0,0,0,.5-3,6.78,6.78,0,0,0-2.1-5.3c-1.4-1.3-3.5-1.9-6.3-1.9h-5.7v14.6h5.7Z"/></g><g class="cls-4"><path class="cls-5" d="M348.32,526.31h-3.7a1.49,1.49,0,0,1-1-.3,1.56,1.56,0,0,1-.6-.8l-3.3-8.6h-15.9l-3.3,8.6a1.56,1.56,0,0,1-.6.8,1.69,1.69,0,0,1-1,.3h-3.7l14.2-35.5h4.8Zm-10-13.2-5.6-14.4a13.08,13.08,0,0,1-.5-1.5,12.09,12.09,0,0,1-.5-1.8,15.85,15.85,0,0,1-1.1,3.3l-5.6,14.4Z"/></g><g class="cls-4"><path class="cls-5" d="M382.12,526.31h-4.3a2,2,0,0,1-1.9-1l-9.2-12.7a3.82,3.82,0,0,0-.9-.9,2.81,2.81,0,0,0-1.5-.3h-3.6v14.8h-4.8v-35.5h10a20,20,0,0,1,5.8.7,10.73,10.73,0,0,1,4,2,7.9,7.9,0,0,1,2.4,3.1,10.7,10.7,0,0,1,.8,4.1,9.89,9.89,0,0,1-.6,3.5,9.25,9.25,0,0,1-1.7,2.9,11.33,11.33,0,0,1-2.7,2.2,13.55,13.55,0,0,1-3.7,1.4,5.62,5.62,0,0,1,1.6,1.5ZM365.82,508a13.8,13.8,0,0,0,3.7-.5,6.91,6.91,0,0,0,2.7-1.4,5.67,5.67,0,0,0,1.6-2.2,6.63,6.63,0,0,0,.5-2.8,5.74,5.74,0,0,0-2.1-4.8c-1.4-1.1-3.5-1.6-6.2-1.6h-5.2v13.4h5Z"/></g><g class="cls-4"><path class="cls-5" d="M413.32,494.81h-11.5v31.4H397v-31.4h-11.5v-4h27.8Z"/><path class="cls-5" d="M449.82,490.81v35.5h-2.4a3,3,0,0,1-1-.2c-.3-.1-.5-.4-.8-.7l-20.5-26.7c0,.4.1.8.1,1.2v26.4H421v-35.5h3c.1,0,.3.1.4.1s.2.1.3.2l.4.4,20.7,26.8c0-.4-.1-.8-.1-1.3v-26.3h4.1Z"/><path class="cls-5" d="M483.42,522.31v3.9h-21.9v-35.5h21.9v3.9h-17.1v11.8h13.8v3.8h-13.8v12.1Z"/><path class="cls-5" d="M518.92,526.31h-4.3a2,2,0,0,1-1.9-1l-9.2-12.7a3.82,3.82,0,0,0-.9-.9,2.81,2.81,0,0,0-1.5-.3h-3.6v14.8h-4.8v-35.5h10a20,20,0,0,1,5.8.7,10.73,10.73,0,0,1,4,2,7.9,7.9,0,0,1,2.4,3.1,10.7,10.7,0,0,1,.8,4.1,9.89,9.89,0,0,1-.6,3.5,9.25,9.25,0,0,1-1.7,2.9,11.33,11.33,0,0,1-2.7,2.2,13.55,13.55,0,0,1-3.7,1.4,5.62,5.62,0,0,1,1.6,1.5ZM502.52,508a13.8,13.8,0,0,0,3.7-.5,6.91,6.91,0,0,0,2.7-1.4,5.67,5.67,0,0,0,1.6-2.2,6.63,6.63,0,0,0,.5-2.8,5.74,5.74,0,0,0-2.1-4.8c-1.4-1.1-3.5-1.6-6.2-1.6h-5.2v13.4h5Z"/></g><circle class="cls-2" cx="300.62" cy="263.61" r="4.5"/></svg>