<svg width="129" height="65" viewBox="0 0 129 65" fill="none" xmlns="http://www.w3.org/2000/svg">
<path d="M33.9042 64.5311C33.2122 64.3237 32.5651 63.9714 32 63.4945L32.6592 62.1823C33.1774 62.6024 33.7598 62.9222 34.3803 63.1271C35.0774 63.3736 35.8069 63.4977 36.5408 63.4945C37.3061 63.5523 38.0712 63.3796 38.7502 62.9958C38.9787 62.8633 39.171 62.6689 39.3081 62.4318C39.4451 62.1947 39.5221 61.9232 39.5314 61.6443C39.5378 61.4556 39.5062 61.2676 39.4387 61.0932C39.3713 60.9188 39.2697 60.7622 39.1408 60.6339C38.849 60.3702 38.5075 60.1777 38.1399 60.0696C37.6138 59.9144 37.0799 59.7917 36.5408 59.7022C35.8192 59.5646 35.1058 59.3806 34.4047 59.1511C33.8753 58.9728 33.3993 58.6468 33.0253 58.2063C32.6201 57.6917 32.4147 57.0291 32.4516 56.3561C32.4454 55.8836 32.5467 55.4166 32.7467 54.9958C32.9467 54.575 33.2393 54.2131 33.5991 53.9416C34.533 53.2647 35.6484 52.9373 36.7727 53.0099C37.4858 53.0117 38.1957 53.1132 38.8845 53.3117C39.5024 53.4701 40.092 53.736 40.63 54.0991L39.983 55.4113C39.0326 54.7229 37.9063 54.3697 36.7605 54.4009C36.0185 54.349 35.279 54.5363 34.6366 54.9389C34.4148 55.0871 34.2321 55.294 34.106 55.5399C33.98 55.7857 33.9147 56.0622 33.9164 56.3429C33.9068 56.543 33.9378 56.7429 34.0074 56.9287C34.0769 57.1146 34.1834 57.2819 34.3192 57.419C34.6048 57.6981 34.9478 57.9004 35.3202 58.0095C35.8668 58.1716 36.4209 58.303 36.9802 58.4031C37.689 58.5394 38.39 58.7191 39.0798 58.9411C39.5989 59.1133 40.0664 59.4302 40.4347 59.8597C40.8295 60.3541 41.0307 60.9937 40.9962 61.6443C41.0041 62.1294 40.896 62.6086 40.6822 63.0359C40.4685 63.4633 40.1563 63.8245 39.7755 64.085C38.7854 64.7445 37.6305 65.0606 36.4676 64.9904C35.5961 64.9816 34.7312 64.8267 33.9042 64.5311Z" fill="#3F3F3F"/>
<path d="M45.6914 64.2381C44.8668 63.7348 44.1844 62.9946 43.7183 62.0978C43.2469 61.1462 43 60.0814 43 58.9996C43 57.9178 43.2469 56.853 43.7183 55.9014C44.1814 55.0021 44.8646 54.261 45.6914 53.7611C46.5609 53.2612 47.529 53 48.5117 53C49.4945 53 50.4626 53.2612 51.3321 53.7611C52.1548 54.2566 52.8341 54.9934 53.2931 55.8882C53.7573 56.8423 54 57.9061 54 58.9864C54 60.0667 53.7573 61.1304 53.2931 62.0845C52.8328 62.9817 52.1541 63.7224 51.3321 64.2249C50.4651 64.7337 49.4961 65 48.5117 65C47.5274 65 46.5584 64.7337 45.6914 64.2249V64.2381ZM50.5332 63.0226C51.1433 62.643 51.6394 62.0786 51.9616 61.3975C52.3008 60.6501 52.4773 59.8272 52.4773 58.993C52.4773 58.1588 52.3008 57.3359 51.9616 56.5884C51.6394 55.9074 51.1433 55.3429 50.5332 54.9634C49.898 54.5864 49.1864 54.3889 48.4633 54.3889C47.7403 54.3889 47.0287 54.5864 46.3934 54.9634C45.7823 55.3457 45.2828 55.9091 44.953 56.5884C44.6045 57.3329 44.4228 58.157 44.4228 58.993C44.4228 59.829 44.6045 60.6531 44.953 61.3975C45.2828 62.0769 45.7823 62.6403 46.3934 63.0226C47.0287 63.3996 47.7403 63.597 48.4633 63.597C49.1864 63.597 49.898 63.3996 50.5332 63.0226Z" fill="#3F3F3F"/>
<path d="M58.7267 64.1596C58.4746 63.8356 58.2812 63.4584 58.1574 63.0494C58.0337 62.6404 57.9821 62.2076 58.0055 61.776V49H59.3481V61.612C59.3121 62.165 59.4584 62.7135 59.7586 63.1507C59.9199 63.3357 60.1144 63.4789 60.3289 63.5703C60.5435 63.6617 60.7729 63.6993 61.0014 63.6804C61.313 63.6906 61.623 63.6262 61.9112 63.4912L62 64.7524C61.6119 64.9105 61.2028 64.9915 60.7906 64.992C60.4146 65.0227 60.0372 64.9646 59.682 64.8214C59.3268 64.6781 59.0015 64.4528 58.7267 64.1596Z" fill="#3F3F3F"/>
<path d="M75 53V64.8454H73.4381V62.6989C73.0219 63.4113 72.4108 63.9944 71.6742 64.3816C70.8846 64.7853 70.0056 64.9901 69.1159 64.9779C68.4272 65.0447 67.732 64.9597 67.0809 64.729C66.4297 64.4984 65.839 64.1279 65.3515 63.6444C64.8641 63.161 64.4923 62.5767 64.263 61.9342C64.0338 61.2916 63.9529 60.6069 64.0262 59.9297V53H65.6555V59.7177C65.5836 60.7474 65.9216 61.7643 66.598 62.5532C66.9531 62.8909 67.3762 63.1515 67.8401 63.3181C68.304 63.4847 68.7983 63.5536 69.291 63.5204C69.8448 63.5496 70.3987 63.4632 70.9162 63.2668C71.4337 63.0704 71.9031 62.7685 72.2936 62.3809C73.0714 61.5098 73.4682 60.3717 73.3977 59.2142V53H75Z" fill="#3F3F3F"/>
<path d="M85 64.1792C84.6763 64.4503 84.2961 64.6542 83.8841 64.7777C83.4495 64.9103 82.9961 64.979 82.5396 64.9814C82.0665 65.0314 81.5876 64.9803 81.1381 64.832C80.6885 64.6837 80.2798 64.4418 79.9419 64.1243C79.6041 63.8067 79.3456 63.4215 79.1855 62.9969C79.0255 62.5723 78.9679 62.1191 79.017 61.6707V51H80.6438V53.5467H84.274V54.8201H80.6438V61.6198C80.5995 62.1824 80.7875 62.7393 81.1682 63.1733C81.3692 63.36 81.6097 63.5043 81.8739 63.5965C82.1382 63.6887 82.42 63.7267 82.7009 63.7081C83.3542 63.7368 83.9942 63.5271 84.4891 63.1223L85 64.1792Z" fill="#3F3F3F"/>
<path d="M87.2857 50.8553C87.1951 50.7555 87.123 50.6354 87.0739 50.5023C87.0248 50.3693 86.9996 50.2261 87 50.0815C86.9999 49.9388 87.0251 49.7976 87.0743 49.6666C87.1234 49.5357 87.1954 49.4178 87.2857 49.3203C87.3811 49.2089 87.4964 49.1228 87.6235 49.068C87.7507 49.0133 87.8867 48.9911 88.022 49.0032C88.1499 48.9999 88.2771 49.0263 88.396 49.0807C88.5149 49.1352 88.6231 49.2167 88.7143 49.3203C88.8048 49.4149 88.8771 49.5304 88.9263 49.6594C88.9755 49.7884 89.0006 49.9279 89 50.0688C88.9982 50.2898 88.9402 50.5053 88.8333 50.6886C88.7264 50.8719 88.5753 51.015 88.3986 51.1C88.2219 51.1851 88.0275 51.2085 87.8395 51.1673C87.6514 51.126 87.478 51.022 87.3407 50.868L87.2857 50.8553ZM87.2857 53.6589H88.6154V65H87.3077L87.2857 53.6589Z" fill="#3F3F3F"/>
<path d="M94.936 64.2257C94.0366 63.723 93.2921 62.9836 92.7836 62.0878C92.2693 61.1372 92 60.0736 92 58.993C92 57.9124 92.2693 56.8488 92.7836 55.8982C93.2888 54.9999 94.0341 54.2596 94.936 53.7603C95.8847 53.2609 96.9407 53 98.0128 53C99.085 53 100.141 53.2609 101.09 53.7603C101.989 54.2588 102.73 54.9995 103.229 55.8982C103.735 56.8513 104 57.9139 104 58.993C104 60.0721 103.735 61.1347 103.229 62.0878C102.727 62.9839 101.986 63.7239 101.09 64.2257C100.144 64.734 99.0867 65 98.0128 65C96.939 65 95.8818 64.734 94.936 64.2257ZM100.218 63.0116C100.884 62.6324 101.425 62.0686 101.776 61.3883C102.146 60.6416 102.339 59.8196 102.339 58.9864C102.339 58.1531 102.146 57.3311 101.776 56.5845C101.425 55.9042 100.884 55.3404 100.218 54.9612C99.5251 54.5847 98.7488 54.3874 97.96 54.3874C97.1712 54.3874 96.3949 54.5847 95.7019 54.9612C95.0352 55.3431 94.4904 55.9059 94.1305 56.5845C93.7503 57.3281 93.5521 58.1513 93.5521 58.9864C93.5521 59.8215 93.7503 60.6447 94.1305 61.3883C94.4904 62.0669 95.0352 62.6297 95.7019 63.0116C96.3949 63.3881 97.1712 63.5854 97.96 63.5854C98.7488 63.5854 99.5251 63.3881 100.218 63.0116Z" fill="#3F3F3F"/>
<path d="M115.777 54.3112C116.203 54.8193 116.53 55.4173 116.739 56.0687C116.947 56.7202 117.032 57.4114 116.989 58.1002V65H115.522V58.2597C115.584 57.231 115.28 56.2161 114.674 55.428C114.354 55.0891 113.973 54.8277 113.555 54.6605C113.138 54.4933 112.693 54.4241 112.249 54.4575C111.739 54.4276 111.23 54.5138 110.752 54.7106C110.274 54.9073 109.839 55.2104 109.473 55.6008C109.126 56.0234 108.859 56.5168 108.686 57.0529C108.513 57.5891 108.439 58.1573 108.467 58.725V64.9601H107V53.1015H108.406V55.295C108.803 54.5714 109.379 53.986 110.067 53.6066C110.821 53.1997 111.652 52.9947 112.492 53.0084C113.091 52.9697 113.692 53.0652 114.256 53.2892C114.821 53.5132 115.338 53.8609 115.777 54.3112Z" fill="#3F3F3F"/>
<path d="M121.917 64.5967C121.22 64.3893 120.569 64.037 120 63.5601L120.664 62.2479C121.185 62.6681 121.772 62.9878 122.397 63.1927C123.098 63.4392 123.833 63.5633 124.572 63.5601C125.342 63.6179 126.113 63.4452 126.796 63.0614C127.024 62.915 127.211 62.7066 127.338 62.4576C127.466 62.2086 127.529 61.9279 127.521 61.6443C127.528 61.4556 127.496 61.2676 127.428 61.0932C127.36 60.9188 127.258 60.7622 127.128 60.6339C126.834 60.3702 126.491 60.1777 126.12 60.0696C125.591 59.9144 125.053 59.7917 124.51 59.7022C123.784 59.5646 123.066 59.3806 122.36 59.1511C121.827 58.9728 121.347 58.6468 120.971 58.2063C120.563 57.6917 120.356 57.0291 120.393 56.3561C120.387 55.8836 120.489 55.4166 120.69 54.9958C120.892 54.575 121.186 54.2131 121.549 53.9416C122.489 53.2647 123.612 52.9373 124.744 53.0099C125.462 53.0117 126.177 53.1132 126.87 53.3117C127.492 53.4701 128.086 53.736 128.627 54.0991L127.976 55.4113C127.019 54.7229 125.885 54.3697 124.732 54.4009C123.985 54.349 123.24 54.5363 122.593 54.9389C122.37 55.0871 122.186 55.294 122.059 55.5399C121.932 55.7857 121.866 56.0622 121.868 56.3429C121.858 56.543 121.89 56.7429 121.96 56.9287C122.03 57.1146 122.137 57.2819 122.274 57.419C122.561 57.6981 122.906 57.9004 123.281 58.0095C123.832 58.1716 124.39 58.303 124.953 58.4031C125.666 58.5394 126.372 58.7191 127.067 58.9411C127.589 59.1133 128.06 59.4302 128.431 59.8597C128.828 60.3541 129.031 60.9937 128.996 61.6443C129.004 62.1294 128.895 62.6086 128.68 63.0359C128.465 63.4633 128.151 63.8245 127.767 64.085C126.77 64.7445 125.608 65.0606 124.437 64.9904C123.583 64.9961 122.734 64.8634 121.917 64.5967Z" fill="#3F3F3F"/>
<path d="M98.9766 17.4763H91.7618C91.487 17.4763 91.2234 17.5844 91.0291 17.7769C90.8348 17.9694 90.7256 18.2304 90.7256 18.5026V36.5692L78.7649 27.4092C78.6079 27.2107 78.5291 26.9625 78.5432 26.7107C78.5573 26.459 78.6634 26.2209 78.8417 26.0409L89.7918 14.9931C89.9343 14.8472 90.0305 14.6632 90.0685 14.4637C90.1066 14.2643 90.0848 14.0581 90.0059 13.8708C89.9269 13.6835 89.7943 13.5232 89.6244 13.4096C89.4545 13.2961 89.2548 13.2344 89.0499 13.232H80.8756C80.6098 13.2317 80.3538 13.3313 80.1593 13.5108L68.6463 24.3179C68.4977 24.4555 68.3118 24.5474 68.1114 24.5822C67.9109 24.6171 67.7046 24.5935 67.5175 24.5143C67.3304 24.435 67.1706 24.3036 67.0576 24.136C66.9445 23.9684 66.8832 23.7719 66.881 23.5704V2.23494C66.8844 2.03266 66.8281 1.83379 66.719 1.66275C66.61 1.4917 66.4528 1.35591 66.2669 1.27206C66.1853 1.23589 66.0993 1.21034 66.0111 1.19604C63.2864 0.486551 53.2189 0.131805 49.3812 0.0304492C46.3878 0.0051102 45.0063 0.0051102 42.7421 0.0051102C39.9812 -0.0630149 37.2467 0.550926 34.7853 1.79151C32.6151 2.9126 30.833 4.65104 29.6684 6.78328C28.4686 9.04285 27.8657 11.5664 27.9159 14.1189C27.7565 16.7825 28.4119 19.4317 29.7964 21.7206C30.881 23.3614 32.4229 24.6553 34.2352 25.4454C36.3387 26.2636 38.5141 26.8871 40.7337 27.3078C42.441 27.5366 44.1074 28.0015 45.6843 28.6888C46.1921 28.9236 46.6171 29.3039 46.9045 29.7804C47.1918 30.257 47.3282 30.8079 47.2961 31.3621C47.2961 34.0142 45.3304 35.3403 41.3989 35.3403C39.3494 35.3409 37.3183 34.9583 35.4121 34.2127C33.5433 33.3848 31.7717 32.3567 30.1289 31.1467C30.1289 31.1467 30.1289 31.0327 30.1289 30.982C30.1547 28.4435 29.4683 25.9479 28.1462 23.7731C26.8619 21.6564 25.0112 19.9331 22.799 18.794C20.4036 17.5736 17.7403 16.9599 15.0469 17.0076C12.3456 16.9614 9.67438 17.575 7.26927 18.794C5.04611 19.9271 3.18566 21.6513 1.89654 23.7731C0.602823 25.9603 -0.0525819 28.4603 0.00329683 30.9947C-0.040976 33.5326 0.627781 36.0329 1.93492 38.2163C3.2235 40.3385 5.0841 42.0628 7.30765 43.1954C9.71641 44.4169 12.3924 45.0305 15.0981 44.9818C17.7915 45.03 20.4549 44.4162 22.8502 43.1954C24.3733 42.4185 25.7357 41.3657 26.8669 40.0914C28.854 41.5172 31.0002 42.7117 33.263 43.6515C35.7672 44.5387 38.4067 44.993 41.0663 44.9944C43.8804 45.0648 46.6705 44.4653 49.2021 43.2461C51.3955 42.1668 53.2098 40.4582 54.4086 38.343C55.6284 36.1306 56.2456 33.6417 56.1995 31.1214C56.3522 28.5075 55.7106 25.9083 54.3574 23.659C53.2782 22.0128 51.7221 20.7277 49.8929 19.9722C47.8145 19.1736 45.6759 18.5382 43.4968 18.0718C41.7321 17.7474 40.0138 17.2113 38.3799 16.4754C37.8566 16.215 37.4236 15.8058 37.1364 15.3002C36.8493 14.7946 36.721 14.2157 36.7681 13.6375C36.7597 13.0692 36.8903 12.5074 37.1487 12C37.4071 11.4926 37.7856 11.0546 38.252 10.7235C39.5757 9.87347 41.1428 9.47323 42.7165 9.58324C45.1214 9.58324 52.349 9.58324 57.5555 9.98866V43.9429C57.5555 44.2184 57.666 44.4827 57.8627 44.6775C58.0594 44.8723 58.3262 44.9818 58.6044 44.9818H65.8064C66.0846 44.9818 66.3514 44.8723 66.5482 44.6775C66.7449 44.4827 66.8554 44.2184 66.8554 43.9429V37.4688C66.8549 37.2874 66.8909 37.1078 66.9612 36.9403C67.0314 36.7728 67.1346 36.6208 67.2647 36.4932L70.9233 33.5919C71.499 33.0218 71.7676 33.0725 72.2793 33.7059L89.2673 44.6017C89.3665 44.7215 89.4916 44.8178 89.6332 44.8836C89.7749 44.9493 89.9296 44.9829 90.086 44.9818H98.9638C99.2386 44.9818 99.5022 44.8737 99.6965 44.6812C99.8908 44.4887 100 44.2277 100 43.9555V18.5026C100 18.2326 99.8926 17.9734 99.701 17.7813C99.5095 17.5893 99.2492 17.4797 98.9766 17.4763ZM20.1126 36.4806C19.4692 37.1515 18.6898 37.68 17.8256 38.0316C16.9614 38.3831 16.0319 38.5497 15.0981 38.5203C14.1585 38.5503 13.2231 38.3841 12.3526 38.0327C11.4821 37.6813 10.6959 37.1525 10.0452 36.4806C9.36665 35.7402 8.84224 34.8746 8.502 33.9332C8.16176 32.9919 8.01237 31.9933 8.06239 30.9947C7.96482 28.9821 8.67799 27.0135 10.0452 25.5215C10.6959 24.8495 11.4821 24.3207 12.3526 23.9693C13.2231 23.6179 14.1585 23.4517 15.0981 23.4817C16.034 23.4505 16.966 23.6162 17.8325 23.9678C18.6991 24.3194 19.4806 24.8489 20.1254 25.5215C21.4834 27.0175 22.1872 28.9856 22.0826 30.9947C22.1344 31.9924 21.987 32.9905 21.649 33.9318C21.311 34.8731 20.7889 35.7392 20.1126 36.4806Z" fill="url(#paint0_linear)"/>
<defs>
<linearGradient id="paint0_linear" x1="99.0918" y1="15.994" x2="-9.70631" y2="40.7052" gradientUnits="userSpaceOnUse">
<stop stop-color="#70E3E1"/>
<stop offset="1" stop-color="#0049B8"/>
</linearGradient>
</defs>
</svg>
